<svg viewBox="0 0 800 800" xmlns="http://www.w3.org/2000/svg" preserveAspectRatio="xMidYMid slice" role="img" aria-label="Joint and Coat Chews placeholder">
  <rect width="800" height="800" fill="#f7f4ef"/>
  <line x1="60" y1="60" x2="140" y2="60" stroke="#9dbfb8" stroke-width="1" opacity="0.6"/>
  <line x1="60" y1="60" x2="60" y2="140" stroke="#9dbfb8" stroke-width="1" opacity="0.6"/>
  <line x1="660" y1="60" x2="740" y2="60" stroke="#9dbfb8" stroke-width="1" opacity="0.6"/>
  <line x1="740" y1="60" x2="740" y2="140" stroke="#9dbfb8" stroke-width="1" opacity="0.6"/>
  <g transform="translate(400, 340)" stroke="#1e4d6b" fill="none" stroke-width="2" stroke-linecap="round" stroke-linejoin="round">
    <rect x="-45" y="-80" width="90" height="20" rx="2"/>
    <path d="M -55 -60 L -55 90 Q -55 100 -45 100 L 45 100 Q 55 100 55 90 L 55 -60 Z"/>
    <circle cx="0" cy="10" r="8" fill="#9dbfb8" stroke="none"/>
    <circle cx="-15" cy="-5" r="4" fill="#9dbfb8" stroke="none"/>
    <circle cx="15" cy="-5" r="4" fill="#9dbfb8" stroke="none"/>
    <circle cx="-10" cy="30" r="4" fill="#9dbfb8" stroke="none"/>
    <circle cx="10" cy="30" r="4" fill="#9dbfb8" stroke="none"/>
  </g>
  <text x="400" y="600" text-anchor="middle" font-family="'DM Sans', system-ui, sans-serif" font-size="14" fill="#9dbfb8" letter-spacing="6">BLUE'S SHOP</text>
  <text x="400" y="660" text-anchor="middle" font-family="Georgia, 'Playfair Display', serif" font-style="italic" font-size="44" fill="#1e4d6b" font-weight="400">Joint &amp; Coat Chews</text>
  <line x1="340" y1="710" x2="395" y2="710" stroke="#9dbfb8" stroke-width="1"/>
  <line x1="405" y1="710" x2="460" y2="710" stroke="#9dbfb8" stroke-width="1"/>
  <circle cx="400" cy="710" r="3" fill="#9dbfb8"/>
</svg>
